<svg width="1600" height="1200" viewBox="0 0 1600 1200" fill="none" xmlns="http://www.w3.org/2000/svg">
<g clip-path="url(#clip0_239_1147)">
<path d="M1600 893C1600 925.033 1574.26 951 1542.5 951C1510.74 951 1485 925.033 1485 893" stroke="#44AB96" stroke-width="13" stroke-linecap="round" stroke-linejoin="round"/>
<path d="M1600 49C1560.23 49 1528 16.5405 1528 -23.5C1528 -63.5407 1560.23 -96 1600 -96" stroke="#E53855" stroke-width="13" stroke-linecap="round" stroke-linejoin="round"/>
<path d="M562 -37.0939C562 -3.90524 588.863 23 622 23C655.137 23 682 -3.90524 682 -37.0939V-105" stroke="#44AB96" stroke-width="13" stroke-linecap="round" stroke-linejoin="round"/>
<path d="M137.235 1306C62.547 1306 2 1245.79 2 1171.5C2 1097.21 62.547 1037 137.235 1037H261" stroke="#FFB017" stroke-width="13" stroke-linecap="round" stroke-linejoin="round"/>
<path d="M128.98 1214C104.138 1214 84 1194.53 84 1170.5C84 1146.47 104.138 1127 128.98 1127H177" stroke="#44AB96" stroke-width="13" stroke-linecap="round" stroke-linejoin="round"/>
<path d="M1600 356V187.681C1600 154.72 1573.13 128 1540 128C1506.87 128 1480 154.72 1480 187.681V213.734" stroke="#DA774A" stroke-width="13" stroke-linecap="round" stroke-linejoin="round"/>
<path d="M389.762 482V546.285C389.762 624.589 453.166 688.066 531.38 688.066H587.787C634.848 688.066 673 726.261 673 773.376M673 859.536H493.563C448.335 859.536 411.669 896.007 411.669 940.996C411.669 985.985 448.335 1022.46 493.563 1022.46H567.622L673 859.536ZM366.84 1306H356.143C324.584 1306 299 1280.38 299 1248.8C299 1217.2 324.584 1191.58 356.143 1191.58H483.723C530.353 1191.58 568.155 1153.74 568.155 1107.05L366.84 1306Z" stroke="#DA774A" stroke-width="13" stroke-linecap="round" stroke-linejoin="round"/>
<path d="M588 327C610.091 327 628 309.091 628 287C628 264.909 610.091 247 588 247C565.909 247 548 264.909 548 287C548 309.091 565.909 327 588 327Z" stroke="#44AB96" stroke-width="13" stroke-linecap="round" stroke-linejoin="round"/>
<path d="M698 1147C730.033 1147 756 1121.26 756 1089.5C756 1057.74 730.033 1032 698 1032C665.967 1032 640 1057.74 640 1089.5C640 1121.26 665.967 1147 698 1147Z" stroke="#E53855" stroke-width="13" stroke-linecap="round" stroke-linejoin="round"/>
<path d="M184 214C218.794 214 247 185.794 247 151C247 116.206 218.794 88 184 88C149.206 88 121 116.206 121 151C121 185.794 149.206 214 184 214Z" stroke="#44AB96" stroke-width="13" stroke-linecap="round" stroke-linejoin="round"/>
<path d="M184.5 288C262.095 288 325 225.992 325 149.5C325 73.0084 262.095 11 184.5 11C106.905 11 44 73.0084 44 149.5" stroke="#FFB017" stroke-width="13" stroke-linecap="round" stroke-linejoin="round"/>
<path d="M1311.21 1118.46C1289.86 1198.27 1336.04 1280.01 1414.35 1301.04C1492.65 1322.05 1573.44 1274.39 1594.79 1194.57C1616.14 1114.76 1569.96 1033.02 1491.65 1012" stroke="#44AB96" stroke-width="13" stroke-linecap="round" stroke-linejoin="round"/>
<path d="M587 769H482.203C448.67 769 417.639 780.601 392.358 800.296M481.83 1107C396.873 1107 328 1031.57 328 938.512C328 906.2 336.304 876.013 350.703 850.37L481.83 1107Z" stroke="#DA774A" stroke-width="13" stroke-linecap="round" stroke-linejoin="round"/>
<path d="M328.5 308C296.743 308 271 333.743 271 365.5C271 397.257 296.743 423 328.5 423C360.257 423 386 397.257 386 365.5V308" stroke="#44AB96" stroke-width="13" stroke-linecap="round" stroke-linejoin="round"/>
<path d="M346 -28.5C346 13.7495 380.026 48 422 48C463.974 48 498 13.7495 498 -28.5C498 -70.7498 463.974 -105 422 -105H346" stroke="#E53855" stroke-width="13" stroke-linecap="round" stroke-linejoin="round"/>
<path d="M71.5 760.582C34.7731 760.582 5 731.127 5 694.791C5 658.455 34.7731 629 71.5 629C108.227 629 138 658.455 138 694.791V896" stroke="#44AB96" stroke-width="13" stroke-linecap="round" stroke-linejoin="round"/>
<path d="M1461.99 764C1461.99 797.689 1488.86 825 1522 825C1555.14 825 1582 797.689 1582 764C1582 730.311 1555.14 703 1522 703H1321" stroke="#44AB96" stroke-width="13" stroke-linecap="round" stroke-linejoin="round"/>
<path d="M966 33.7908C930.654 33.7908 902 62.0434 902 96.8954C902 131.747 930.654 160 966 160C1001.35 160 1030 131.747 1030 96.8954V-106" stroke="#4484AB" stroke-width="13" stroke-linecap="round" stroke-linejoin="round"/>
<path d="M914.919 1248C914.919 1215.97 940.681 1190 972.459 1190C1004.24 1190 1030 1215.97 1030 1248C1030 1280.03 1004.24 1306 972.459 1306H881" stroke="#44AB96" stroke-width="13" stroke-linecap="round" stroke-linejoin="round"/>
<path d="M1089.5 456.578C1121.26 456.578 1147 482.191 1147 513.789C1147 545.386 1121.26 571 1089.5 571C1057.74 571 1032 545.386 1032 513.789V300" stroke="#DA774A" stroke-width="13" stroke-linecap="round" stroke-linejoin="round"/>
<path d="M62.5 462.708C30.7436 462.708 5 488.069 5 519.354C5 550.639 30.7436 576 62.5 576C94.2564 576 120 550.639 120 519.354V288" stroke="#DA774A" stroke-width="13" stroke-linecap="round" stroke-linejoin="round"/>
<path d="M688.704 288C688.704 231.115 643.327 185 587.352 185C531.377 185 486 231.115 486 288C486 344.885 531.377 391 587.352 391H853" stroke="#FFB017" stroke-width="13" stroke-linecap="round" stroke-linejoin="round"/>
<path d="M1498.64 621C1554.63 621 1600 574.885 1600 518C1600 461.115 1554.63 415 1498.64 415H1233" stroke="#44AB96" stroke-width="13" stroke-linecap="round" stroke-linejoin="round"/>
<path fill-rule="evenodd" clip-rule="evenodd" d="M1107 69.5C1107 16.2042 1149.74 -27 1202.46 -27H1300.54C1353.26 -27 1396 16.2042 1396 69.5C1396 122.796 1353.26 166 1300.54 166H1202.46C1149.74 166 1107 122.796 1107 69.5Z" stroke="#DA774A" stroke-width="13" stroke-linecap="round" stroke-linejoin="round"/>
<path fill-rule="evenodd" clip-rule="evenodd" d="M266.5 765C233.639 765 207 738.406 207 705.6V536.4C207 503.594 233.639 477 266.5 477C299.361 477 326 503.594 326 536.4V705.6C326 738.406 299.361 765 266.5 765Z" stroke="#FFB017" stroke-width="13" stroke-linecap="round" stroke-linejoin="round"/>
<path d="M828 689.5V600.166C828 574.669 848.819 554 874.5 554C900.181 554 921 574.669 921 600.166V778.834C921 804.331 900.181 825 874.5 825C848.819 825 828 804.331 828 778.834V757.25" stroke="#E53855" stroke-width="13" stroke-linecap="round" stroke-linejoin="round"/>
<path d="M914 211.93V219.719C914 264.057 877.959 300 833.5 300C789.041 300 753 264.057 753 219.719V-24.7189C753 -69.057 789.041 -105 833.5 -105C877.959 -105 914 -69.057 914 -24.7189V-22.3225" stroke="#FFB017" stroke-width="13" stroke-linecap="round" stroke-linejoin="round"/>
<path d="M71.75 846H66.9392C32.7312 846 5 873.758 5 908C5 942.242 32.7311 970 66.9392 970H210.061C244.269 970 272 942.242 272 908C272 873.758 244.269 846 210.061 846H205.25" stroke="#FFB017" stroke-width="13" stroke-linecap="round" stroke-linejoin="round"/>
<path d="M751 554V785.637C751 854.873 807.636 911 877.5 911C947.364 911 1004 854.873 1004 785.637V730.909" stroke="#44AB96" stroke-width="13" stroke-linecap="round" stroke-linejoin="round"/>
<path d="M497 946H704.802C783.888 946 848 1010.47 848 1090C848 1169.52 783.888 1234 704.802 1234H642.288" stroke="#44AB96" stroke-width="13" stroke-linecap="round" stroke-linejoin="round"/>
<path d="M586 595H536.813C503.779 595 477 568.137 477 535C477 501.863 503.779 475 536.813 475H635.187C668.221 475 695 501.863 695 535V540.33C695 570.524 670.6 595 640.5 595" stroke="#4484AB" stroke-width="13" stroke-linecap="round" stroke-linejoin="round"/>
<path d="M1089.5 366H1145.68C1183.41 366 1214 337.122 1214 301.5C1214 265.878 1183.41 237 1145.68 237H1033.32C995.587 237 965 265.878 965 301.5" stroke="#44AB96" stroke-width="13" stroke-linecap="round" stroke-linejoin="round"/>
<path d="M675 97H540.319C455.091 97 386 166.396 386 252" stroke="#44AB96" stroke-width="13" stroke-linecap="round" stroke-linejoin="round"/>
<path d="M1449.5 1100.84C1481.26 1100.84 1507 1126.4 1507 1157.92C1507 1189.44 1481.26 1215 1449.5 1215C1417.74 1215 1392 1189.44 1392 1157.92V786" stroke="#E53855" stroke-width="13" stroke-linecap="round" stroke-linejoin="round"/>
<path d="M1019 1138C1019 1079.46 1065.85 1032 1123.63 1032H1308" stroke="#44AB96" stroke-width="13" stroke-linecap="round" stroke-linejoin="round"/>
<path d="M747 475H845.373C911.441 475 965 421.274 965 355" stroke="#4484AB" stroke-width="13" stroke-linecap="round" stroke-linejoin="round"/>
<path d="M1321 788V841.755C1321 896.014 1277 940 1222.71 940H1146" stroke="#4484AB" stroke-width="13" stroke-linecap="round" stroke-linejoin="round"/>
<path d="M1507 520H1422.99C1362.24 520 1313 569.697 1313 631" stroke="#DA774A" stroke-width="13" stroke-linecap="round" stroke-linejoin="round"/>
<path d="M218 1306V1214.88C218 1162.42 258.975 1118.47 314 1107" stroke="#44AB96" stroke-width="13" stroke-linecap="round" stroke-linejoin="round"/>
<path d="M44.5 220C44.5 229.313 44.5 346.548 44.5 404" stroke="#44AB96" stroke-width="13" stroke-linecap="round" stroke-linejoin="round"/>
<path d="M1088.5 643C1088.5 650.693 1088.5 747.539 1088.5 795" stroke="#44AB96" stroke-width="13" stroke-linecap="round" stroke-linejoin="round"/>
<path d="M934.5 1056C934.5 1059.14 934.5 1098.64 934.5 1118" stroke="#44AB96" stroke-width="13" stroke-linecap="round" stroke-linejoin="round"/>
<path d="M954 986H980.776C1036.11 986 1080.96 941.201 1080.96 885.938M1233 481V623.331C1233 645.726 1214.7 663.866 1192.14 663.866C1169.57 663.866 1151.27 682.021 1151.27 704.417V712.828C1151.27 735.223 1169.57 753.379 1192.14 753.379C1214.7 753.379 1233 771.534 1233 793.93V803.242C1233 830.781 1210.5 853.105 1182.75 853.105H1156.72H1118.58L1233 481Z" stroke="#FFB017" stroke-width="13" stroke-linecap="round" stroke-linejoin="round"/>
<path d="M1481 283.921V304.203C1481 332.81 1457.74 356 1429.06 356C1400.37 356 1377.1 332.81 1377.1 304.203V287.403C1377.1 259.014 1354.02 236 1325.56 236C1297.08 236 1274 259.014 1274 287.403V308.079" stroke="#E53855" stroke-width="13" stroke-linecap="round" stroke-linejoin="round"/>
<path fill-rule="evenodd" clip-rule="evenodd" d="M1089 1179.97C1089 1139.67 1121.68 1107 1162 1107C1202.31 1107 1235 1139.67 1235 1179.97V1233.03C1235 1273.33 1202.31 1306 1162 1306C1121.68 1306 1089 1273.33 1089 1233.03V1179.97Z" stroke="#4484AB" stroke-width="13" stroke-linecap="round" stroke-linejoin="round"/>
</g>
<defs>
<clipPath id="clip0_239_1147">
<rect width="1600" height="1200" fill="white"/>
</clipPath>
</defs>
</svg>
