<?xml version="1.0" encoding="iso-8859-1"?>
<!-- Generator: Adobe Illustrator 19.0.0, SVG Export Plug-In . SVG Version: 6.00 Build 0)  -->
<svg version="1.1" id="Layer_1" xmlns="http://www.w3.org/2000/svg" xmlns:xlink="http://www.w3.org/1999/xlink" x="0px" y="0px"
	 viewBox="0 0 504.4 504.4" style="enable-background:new 0 0 504.4 504.4;" xml:space="preserve" fill="#fff">
<g>
	<g>
		<path d="M296.8,219.8c-10-14-26.4-23.2-44.8-23.2c-18.4,0-34.8,9.2-44.8,23.2c-6.4,9.2-10.4,20.4-10.4,32.4
			c0,30.4,24.8,55.2,55.2,55.2c30.4,0,55.2-24.8,55.2-55.2C307.2,240.2,303.2,229,296.8,219.8z"/>
	</g>
</g>
<g>
	<g>
		<path d="M331.6,220.2c4,8,6.4,20.8,6.4,32c0,47.2-38.4,86-86,86c-47.6,0-86-38.4-86-86c0-11.6,2.4-24,6.4-32H124v128.4
			c0,16.8,14.8,31.6,31.6,31.6h192.8c16.8,0,31.6-14.8,31.6-31.6V220.2H331.6z"/>
	</g>
</g>
<g>
	<g>
		<polygon points="365.6,131.4 319.2,131.4 319.2,184.6 372,184.6 372,138.2 372,131 		"/>
	</g>
</g>
<g>
	<g>
		<path d="M377.6,0.2H126.4C56.8,0.2,0,57,0,126.6v251.6c0,69.2,56.8,126,126.4,126H378c69.6,0,126.4-56.8,126.4-126.4V126.6
			C504,57,447.2,0.2,377.6,0.2z M408,219.8L408,219.8l0,128.8c0,33.6-26,59.6-59.6,59.6H155.6c-33.6,0-59.6-26-59.6-59.6V219.8v-64
			c0-33.6,26-59.6,59.6-59.6h192.8c33.6,0,59.6,26,59.6,59.6V219.8z"/>
	</g>
</g>
<g>
</g>
<g>
</g>
<g>
</g>
<g>
</g>
<g>
</g>
<g>
</g>
<g>
</g>
<g>
</g>
<g>
</g>
<g>
</g>
<g>
</g>
<g>
</g>
<g>
</g>
<g>
</g>
<g>
</g>
</svg>
